<svg id="Layer_1" data-name="Layer 1" xmlns="http://www.w3.org/2000/svg" viewBox="0 0 259.05 90.85"><defs><style>.cls-1{fill:none;stroke:#4f4f4f;stroke-miterlimit:10;stroke-width:4px;}.cls-2{font-size:29.43px;fill:#4f4f4f;font-family:Geneva, Geneva;}.cls-3{letter-spacing:0.16em;}</style></defs><title>bblogo</title><path class="cls-1" d="M6.45,26.42C9.5,7,40.73,3.37,55.21,8.24c11,3.7,19.92,11.13,20.55,23.07.39,7.59-.34,15-7.05,19.88-9.7,7-27.45,6.21-39,5.24C12.5,55,3.87,43.32,6.45,26.42Z" transform="translate(-4 -2)"/><path class="cls-1" d="M15,13.34C3.34,41.27,76.1,45.15,65.05,13" transform="translate(-4 -2)"/><path class="cls-1" d="M30.34,7.27c-8,4.73-9.81,14.6,1,17.12,5,1.15,13.7,1.21,18.51-1.05,12.94-6.09-2.86-16-11.62-12.82C26.62,14.7,41.34,23,47.08,16.59" transform="translate(-4 -2)"/><text class="cls-2" transform="translate(83.63 25.86)"><tspan class="cls-3">BUN BUN </tspan><tspan x="0" y="29.42">BAKE SHOP</tspan></text><text x="-4" y="-2"></text></svg>